<svg width="41" height="41" viewBox="0 0 41 41" fill="none" xmlns="http://www.w3.org/2000/svg">
<g clip-path="url(#clip0_218_24)">
<path fill-rule="evenodd" clip-rule="evenodd" d="M23.1629 3.16223C23.1629 1.70176 22.0132 0.517822 20.5951 0.517822C19.177 0.517822 18.0274 1.70176 18.0274 3.16223V18.1692H2.94216C1.24043 18.1692 0.5 19.26 0.5 20.5095C0.5 21.759 1.24043 23.0085 2.94216 23.0085H18.0274V38.0022C18.0274 39.4627 19.177 40.5178 20.5951 40.5178C22.0132 40.5178 23.1629 39.4627 23.1629 38.0022V23.0085H37.9275C39.6292 23.0085 40.5 21.759 40.5 20.5095C40.5 19.26 39.6292 18.1692 37.9275 18.1692H23.1629V3.16223Z" fill="#75E3E3"/>
</g>
<defs>
<clipPath id="clip0_218_24">
<rect width="40" height="40" fill="white" transform="translate(0.5 0.517822)"/>
</clipPath>
</defs>
</svg>
