<svg width="35" height="50" viewBox="0 0 35 50" fill="none" xmlns="http://www.w3.org/2000/svg">
<path fill-rule="evenodd" clip-rule="evenodd" d="M27.0634 50H11.1904V45.2381H27.0634C28.8167 45.2381 30.238 43.8168 30.238 42.0635V7.93651C30.238 6.18322 28.8167 4.7619 27.0634 4.7619H11.1904V0H27.0634C31.4466 0 34.9999 3.5533 34.9999 7.93651V42.0635C34.9999 46.4467 31.4466 50 27.0634 50ZM24.2177 23.7788L14.1161 13.6772C13.4963 13.0573 12.4912 13.0573 11.8714 13.6772C11.2515 14.2971 11.2515 15.3021 11.8714 15.922L19.2632 23.3138H0.873047V26.4884H19.2632L11.8714 33.8803C11.2515 34.5002 11.2515 35.5052 11.8714 36.1251C12.4912 36.7449 13.4963 36.7449 14.1161 36.1251L24.2177 26.0235C24.8375 25.4037 24.8375 24.3986 24.2177 23.7788Z" fill="#828282"/>
</svg>
