<svg width="31" height="31" viewBox="0 0 31 31" fill="none" xmlns="http://www.w3.org/2000/svg">
<path fill-rule="evenodd" clip-rule="evenodd" d="M28.373 15.3751C28.373 22.5548 22.5527 28.3751 15.373 28.3751C8.19335 28.3751 2.37305 22.5548 2.37305 15.3751C2.37305 8.19542 8.19335 2.37512 15.373 2.37512C22.5527 2.37512 28.373 8.19542 28.373 15.3751ZM30.373 15.3751C30.373 23.6594 23.6573 30.3751 15.373 30.3751C7.08878 30.3751 0.373047 23.6594 0.373047 15.3751C0.373047 7.09085 7.08878 0.375122 15.373 0.375122C23.6573 0.375122 30.373 7.09085 30.373 15.3751ZM13.9331 16.2751C13.7864 16.6351 13.7131 17.0485 13.7131 17.5151H16.7331C16.7331 17.1551 16.8131 16.8418 16.9731 16.5751C17.1464 16.3085 17.3597 16.0551 17.6131 15.8151C17.8664 15.5751 18.1331 15.3285 18.4131 15.0751C18.7064 14.8218 18.9797 14.5485 19.2331 14.2551C19.4864 13.9618 19.6931 13.6151 19.8531 13.2151C20.0131 12.8151 20.0931 12.3551 20.0931 11.8351C20.0931 11.0351 19.8731 10.3618 19.4331 9.81513C19.0064 9.26847 18.4131 8.85513 17.6531 8.57513C16.8931 8.2818 16.0131 8.13513 15.0131 8.13513C13.6664 8.13513 12.5197 8.3818 11.5731 8.87513C10.6264 9.35513 9.88639 10.0018 9.35306 10.8151L11.7731 12.2351C12.0931 11.7685 12.4997 11.4085 12.9931 11.1551C13.4864 10.8885 14.0464 10.7551 14.6731 10.7551C15.3264 10.7551 15.8464 10.9018 16.2331 11.1951C16.6331 11.4885 16.8331 11.8751 16.8331 12.3551C16.8331 12.6485 16.7531 12.9151 16.5931 13.1551C16.4464 13.3951 16.2531 13.6285 16.0131 13.8551C15.7864 14.0685 15.5397 14.2951 15.2731 14.5351C15.0064 14.7751 14.7531 15.0351 14.5131 15.3151C14.2864 15.5951 14.0931 15.9151 13.9331 16.2751ZM13.8531 21.9951C14.2131 22.3551 14.6731 22.5351 15.2331 22.5351C15.8064 22.5351 16.2664 22.3551 16.6131 21.9951C16.9731 21.6351 17.1531 21.2085 17.1531 20.7151C17.1531 20.2085 16.9731 19.7885 16.6131 19.4551C16.2664 19.1085 15.8064 18.9351 15.2331 18.9351C14.6731 18.9351 14.2131 19.1085 13.8531 19.4551C13.4931 19.7885 13.3131 20.2085 13.3131 20.7151C13.3131 21.2085 13.4931 21.6351 13.8531 21.9951Z" fill="#B4B2AF" fill-opacity="0.5"/>
</svg>
