<svg width="50" height="50" viewBox="0 0 50 50" fill="none" xmlns="http://www.w3.org/2000/svg">
<path fill-rule="evenodd" clip-rule="evenodd" d="M21.4327 0.949546C21.524 0.401605 21.9981 0 22.5536 0H27.4464C28.0019 0 28.476 0.401606 28.5673 0.949547L29.24 4.98547C31.7435 5.5132 34.0783 6.4988 36.1527 7.85057L39.4837 5.47128C39.9358 5.1484 40.555 5.19965 40.9478 5.59244L44.4076 9.05224C44.8003 9.44504 44.8516 10.0642 44.5287 10.5163L42.1494 13.8473C43.5012 15.9216 44.4868 18.2565 45.0145 20.76L49.0505 21.4327C49.5984 21.524 50 21.9981 50 22.5536V27.4464C50 28.0019 49.5984 28.476 49.0505 28.5673L45.0145 29.24C44.4868 31.7435 43.5012 34.0783 42.1494 36.1527L44.5287 39.4838C44.8516 39.9358 44.8004 40.555 44.4076 40.9478L40.9478 44.4076C40.555 44.8004 39.9358 44.8516 39.4838 44.5288L36.1527 42.1494C34.0783 43.5012 31.7435 44.4868 29.24 45.0145L28.5673 49.0505C28.476 49.5984 28.0019 50 27.4464 50H22.5536C21.9981 50 21.524 49.5984 21.4327 49.0505L20.76 45.0145C18.2565 44.4868 15.9217 43.5012 13.8473 42.1494L10.5162 44.5287C10.0642 44.8516 9.44501 44.8004 9.05221 44.4076L5.59241 40.9478C5.19962 40.555 5.14837 39.9358 5.47125 39.4838L7.85057 36.1527C6.4988 34.0783 5.5132 31.7435 4.98546 29.24L0.949546 28.5673C0.401605 28.476 0 28.0019 0 27.4464V22.5536C0 21.9981 0.401606 21.524 0.949547 21.4327L4.98547 20.76C5.5132 18.2565 6.4988 15.9217 7.85057 13.8473L5.47128 10.5163C5.1484 10.0642 5.19965 9.44505 5.59244 9.05225L9.05224 5.59245C9.44504 5.19965 10.0642 5.14841 10.5163 5.47128L13.8473 7.85058C15.9216 6.4988 18.2565 5.5132 20.76 4.98547L21.4327 0.949546ZM25 39.5034C16.99 39.5034 10.4966 33.01 10.4966 25C10.4966 16.99 16.99 10.4966 25 10.4966C33.01 10.4966 39.5034 16.99 39.5034 25C39.5034 33.01 33.01 39.5034 25 39.5034ZM25 34.0909C30.0208 34.0909 34.0909 30.0208 34.0909 25C34.0909 19.9792 30.0208 15.9091 25 15.9091C19.9792 15.9091 15.9091 19.9792 15.9091 25C15.9091 30.0208 19.9792 34.0909 25 34.0909Z" fill="#828282"/>
</svg>
