<svg width="47" height="27" viewBox="0 0 47 27" fill="none" xmlns="http://www.w3.org/2000/svg">
<path fill-rule="evenodd" clip-rule="evenodd" d="M0.121216 3.5C0.121216 1.84315 1.75228 0.5 3.01941 0.5L43.0194 0.5C44.2865 0.5 46.1212 1.84315 46.1212 3.5C46.1212 5.15685 44.2865 6.5 43.0194 6.5L3.01941 6.5C1.75228 6.5 0.121216 5.15685 0.121216 3.5Z" fill="#33845D"/>
<path fill-rule="evenodd" clip-rule="evenodd" d="M0.121216 13.5C0.121216 11.8431 1.75228 10.5 3.01941 10.5L43.0194 10.5C44.2865 10.5 46.1212 11.8431 46.1212 13.5C46.1212 15.1569 44.2865 16.5 43.0194 16.5L3.01941 16.5C1.75228 16.5 0.121216 15.1569 0.121216 13.5Z" fill="#33845D"/>
<path fill-rule="evenodd" clip-rule="evenodd" d="M0.121216 23.5C0.121216 21.8431 1.75228 20.5 3.01941 20.5L43.0194 20.5C44.2865 20.5 46.1212 21.8431 46.1212 23.5C46.1212 25.1569 44.2865 26.5 43.0194 26.5L3.01941 26.5C1.75228 26.5 0.121216 25.1569 0.121216 23.5Z" fill="#33845D"/>
</svg>
