<svg width="24" height="24" viewBox="0 0 24 24" fill="none" xmlns="http://www.w3.org/2000/svg">
<path fill-rule="evenodd" clip-rule="evenodd" d="M14.7863 18.8001C19.8749 18.8001 24 14.675 24 9.58637C24 4.49779 19.8749 0.372681 14.7863 0.372681C9.69773 0.372681 5.57262 4.49779 5.57262 9.58637C5.57262 11.4306 6.11446 13.1483 7.04764 14.5889L0.557852 20.5601C-0.144274 21.2061 -0.189756 22.299 0.456265 23.0012C1.10229 23.7033 2.19517 23.7488 2.8973 23.1027L9.43489 17.0875C10.9434 18.1657 12.7908 18.8001 14.7863 18.8001ZM14.7863 15.6667C11.4282 15.6667 8.706 12.9444 8.706 9.58637C8.706 6.22831 11.4282 3.50606 14.7863 3.50606C18.1444 3.50606 20.8666 6.22831 20.8666 9.58637C20.8666 12.9444 18.1444 15.6667 14.7863 15.6667Z" fill="#469BC1"/>
</svg>
